<svg viewBox="0 0 128 128" version="1.1" xmlns="http://www.w3.org/2000/svg" xmlns:xlink="http://www.w3.org/1999/xlink">
    <defs>
        <linearGradient x1="9.36913521%" y1="34.587615%" x2="109.925597%" y2="72.7327956%" id="linearGradient-1">
            <stop stop-color="#215AC6" offset="0%"></stop>
            <stop stop-color="#041F64" offset="100%"></stop>
        </linearGradient>
    </defs>
    <g id="Page-1" stroke="none" stroke-width="1" fill="none" fill-rule="evenodd">
        <g id="user_photo" fill-rule="nonzero">
            <rect id="Rectangle-path" fill="url(#linearGradient-1)" x="0" y="0" width="128" height="128"></rect>
            <path d="M93.13,94.94 L34.88,94.94 C34.3277153,94.94 33.88,94.4922847 33.88,93.94 L33.88,84.06 C33.88,83.56 34.88,73.66 57.25,69 L57.25,66.93 C55.42,65.45 48.25,59.05 48.44,49.67 C48.44,49.41 48.24,42.13 52.96,37.25 C55.65,34.47 59.36,33.06 63.96,33.06 C68.56,33.06 72.31,34.47 74.96,37.25 C79.68,42.13 79.49,49.41 79.48,49.72 C79.69,59.06 72.48,65.45 70.67,66.93 L70.67,69 C92.99,73.66 94.01,83.56 94.04,84 L94.04,94 C94.0121491,94.4958221 93.6246583,94.8960873 93.13,94.94 Z M35.87,92.94 L92.13,92.94 L92.13,84.06 C92.13,84.06 90.97,75.06 69.55,70.79 C69.0768768,70.6935264 68.7402643,70.2727608 68.75,69.79 L68.75,66.44 C68.7491697,66.1199461 68.9015858,65.8188314 69.16,65.63 C69.24,65.57 77.78,59.18 77.56,49.71 C77.56,49.59 77.72,42.89 73.56,38.63 C71.26,36.26 68.03,35.06 63.96,35.06 C59.89,35.06 56.66,36.26 54.36,38.63 C50.24,42.89 50.36,49.63 50.36,49.63 C50.14,59.17 58.67,65.54 58.76,65.63 C59.0184142,65.8188314 59.1708303,66.1199461 59.17,66.44 L59.17,69.81 C59.1797357,70.2927608 58.8431232,70.7135264 58.37,70.81 C37,75.05 35.88,84.06 35.87,84.15 L35.87,92.94 Z" id="Shape" fill="#FFFFFF"></path>
        </g>
    </g>
</svg>